HIERARCHY
ROOT Hips
{
	OFFSET 0.000000 0.794594 0.001814
	CHANNELS 6 Xposition Yposition Zposition Zrotation Xrotation Yrotation
	JOINT Spine
	{
		OFFSET -0.000000 0.051920 0.010783
		CHANNELS 3 Zrotation Xrotation Yrotation
		JOINT Chest
		{
			OFFSET 0.000000 0.111800 0.002643
			CHANNELS 3 Zrotation Xrotation Yrotation
			JOINT UpperChest
			{
				OFFSET 0.000011 0.124994 0.000757
				CHANNELS 3 Zrotation Xrotation Yrotation
				JOINT Neck
				{
					OFFSET 0.000112 0.117645 -0.020286
					CHANNELS 3 Zrotation Xrotation Yrotation
					JOINT Head
					{
						OFFSET 0.000009 0.074358 -0.000161
						CHANNELS 3 Zrotation Xrotation Yrotation
						JOINT LeftEye
						{
							OFFSET 0.019846 0.051735 0.040589
							CHANNELS 3 Zrotation Xrotation Yrotation
							End Site
							{
								OFFSET -0.000199 0.054090 0.042333
							}
						}
						JOINT RightEye
						{
							OFFSET -0.020226 0.051740 0.040395
							CHANNELS 3 Zrotation Xrotation Yrotation
							End Site
							{
								OFFSET -0.000199 0.054090 0.042333
							}
						}
					}
				}
				JOINT LeftShoulder
				{
					OFFSET 0.022481 0.089795 -0.017340
					CHANNELS 3 Zrotation Xrotation Yrotation
					JOINT LeftUpperArm
					{
						OFFSET 0.087730 -0.000010 0.000425
						CHANNELS 3 Zrotation Xrotation Yrotation
						JOINT LeftLowerArm
						{
							OFFSET 0.210364 0.001461 0.000713
							CHANNELS 3 Zrotation Xrotation Yrotation
							JOINT LeftHand
							{
								OFFSET 0.205444 0.001377 0.000711
								CHANNELS 3 Zrotation Xrotation Yrotation
								JOINT LeftIndexProximal
								{
									OFFSET 0.064499 0.001525 0.020305
									CHANNELS 3 Zrotation Xrotation Yrotation
									JOINT LeftIndexIntermediate
									{
										OFFSET 0.033222 0.000012 0.000212
										CHANNELS 3 Zrotation Xrotation Yrotation
										JOINT LeftIndexDistal
										{
											OFFSET 0.020455 0.000007 0.000130
											CHANNELS 3 Zrotation Xrotation Yrotation
											End Site
											{
												OFFSET 0.020455 0.000007 0.000130
											}
										}
									}
								}
								JOINT LeftLittleProximal
								{
									OFFSET 0.062854 -0.001936 -0.027845
									CHANNELS 3 Zrotation Xrotation Yrotation
									JOINT LeftLittleIntermediate
									{
										OFFSET 0.031399 0.000011 0.000200
										CHANNELS 3 Zrotation Xrotation Yrotation
										JOINT LeftLittleDistal
										{
											OFFSET 0.018096 0.000006 0.000115
											CHANNELS 3 Zrotation Xrotation Yrotation
											End Site
											{
												OFFSET 0.018096 0.000006 0.000115
											}
										}
									}
								}
								JOINT LeftMiddleProximal
								{
									OFFSET 0.066609 0.003801 0.003549
									CHANNELS 3 Zrotation Xrotation Yrotation
									JOINT LeftMiddleIntermediate
									{
										OFFSET 0.037005 0.000013 0.000236
										CHANNELS 3 Zrotation Xrotation Yrotation
										JOINT LeftMiddleDistal
										{
											OFFSET 0.022829 0.000008 0.000145
											CHANNELS 3 Zrotation Xrotation Yrotation
											End Site
											{
												OFFSET 0.022829 0.000008 0.000145
											}
										}
									}
								}
								JOINT LeftRingProximal
								{
									OFFSET 0.066900 0.003343 -0.012193
									CHANNELS 3 Zrotation Xrotation Yrotation
									JOINT LeftRingIntermediate
									{
										OFFSET 0.034327 0.000012 0.000219
										CHANNELS 3 Zrotation Xrotation Yrotation
										JOINT LeftRingDistal
										{
											OFFSET 0.019811 0.000007 0.000126
											CHANNELS 3 Zrotation Xrotation Yrotation
											End Site
											{
												OFFSET 0.019811 0.000007 0.000126
											}
										}
									}
								}
								JOINT LeftThumbProximal
								{
									OFFSET 0.001848 -0.006641 0.017858
									CHANNELS 3 Zrotation Xrotation Yrotation
									JOINT LeftThumbIntermediate
									{
										OFFSET 0.030326 -0.003605 0.035110
										CHANNELS 3 Zrotation Xrotation Yrotation
										JOINT LeftThumbDistal
										{
											OFFSET 0.019149 -0.004135 0.020870
											CHANNELS 3 Zrotation Xrotation Yrotation
											End Site
											{
												OFFSET 0.019149 -0.004134 0.020871
											}
										}
									}
								}
							}
						}
					}
				}
				JOINT RightShoulder
				{
					OFFSET -0.022291 0.089803 -0.017557
					CHANNELS 3 Zrotation Xrotation Yrotation
					JOINT RightUpperArm
					{
						OFFSET -0.087729 0.000010 -0.000425
						CHANNELS 3 Zrotation Xrotation Yrotation
						JOINT RightLowerArm
						{
							OFFSET -0.210401 0.000107 -0.000861
							CHANNELS 3 Zrotation Xrotation Yrotation
							JOINT RightHand
							{
								OFFSET -0.205447 0.000040 -0.000840
								CHANNELS 3 Zrotation Xrotation Yrotation
								JOINT RightIndexProximal
								{
									OFFSET -0.064690 0.001511 0.019688
									CHANNELS 3 Zrotation Xrotation Yrotation
									JOINT RightIndexIntermediate
									{
										OFFSET -0.033222 0.000005 -0.000106
										CHANNELS 3 Zrotation Xrotation Yrotation
										JOINT RightIndexDistal
										{
											OFFSET -0.020455 0.000003 -0.000065
											CHANNELS 3 Zrotation Xrotation Yrotation
											End Site
											{
												OFFSET -0.020455 0.000003 -0.000065
											}
										}
									}
								}
								JOINT RightLittleProximal
								{
									OFFSET -0.062585 -0.001949 -0.028444
									CHANNELS 3 Zrotation Xrotation Yrotation
									JOINT RightLittleIntermediate
									{
										OFFSET -0.031399 0.000005 -0.000100
										CHANNELS 3 Zrotation Xrotation Yrotation
										JOINT RightLittleDistal
										{
											OFFSET -0.018096 0.000003 -0.000057
											CHANNELS 3 Zrotation Xrotation Yrotation
											End Site
											{
												OFFSET -0.018096 0.000003 -0.000057
											}
										}
									}
								}
								JOINT RightMiddleProximal
								{
									OFFSET -0.066640 0.003787 0.002913
									CHANNELS 3 Zrotation Xrotation Yrotation
									JOINT RightMiddleIntermediate
									{
										OFFSET -0.037006 0.000005 -0.000118
										CHANNELS 3 Zrotation Xrotation Yrotation
										JOINT RightMiddleDistal
										{
											OFFSET -0.022829 0.000003 -0.000072
											CHANNELS 3 Zrotation Xrotation Yrotation
											End Site
											{
												OFFSET -0.022829 0.000003 -0.000072
											}
										}
									}
								}
								JOINT RightRingProximal
								{
									OFFSET -0.066782 0.003329 -0.012831
									CHANNELS 3 Zrotation Xrotation Yrotation
									JOINT RightRingIntermediate
									{
										OFFSET -0.034327 0.000005 -0.000109
										CHANNELS 3 Zrotation Xrotation Yrotation
										JOINT RightRingDistal
										{
											OFFSET -0.019810 0.000003 -0.000063
											CHANNELS 3 Zrotation Xrotation Yrotation
											End Site
											{
												OFFSET -0.019810 0.000003 -0.000063
											}
										}
									}
								}
								JOINT RightThumbProximal
								{
									OFFSET -0.002017 -0.006641 0.017839
									CHANNELS 3 Zrotation Xrotation Yrotation
									JOINT RightThumbIntermediate
									{
										OFFSET -0.032510 -0.005699 0.032803
										CHANNELS 3 Zrotation Xrotation Yrotation
										JOINT RightThumbDistal
										{
											OFFSET -0.020784 -0.005081 0.019013
											CHANNELS 3 Zrotation Xrotation Yrotation
											End Site
											{
												OFFSET -0.020784 -0.005081 0.019013
											}
										}
									}
								}
							}
						}
					}
				}
			}
		}
	}
	JOINT LeftUpperLeg
	{
		OFFSET 0.077122 -0.039594 -0.005714
		CHANNELS 3 Zrotation Xrotation Yrotation
		JOINT LeftLowerLeg
		{
			OFFSET 0.000000 -0.343087 0.003694
			CHANNELS 3 Zrotation Xrotation Yrotation
			JOINT LeftFoot
			{
				OFFSET 0.000000 -0.401029 -0.031329
				CHANNELS 3 Zrotation Xrotation Yrotation
				JOINT LeftToes
				{
					OFFSET 0.000000 -0.001594 0.127952
					CHANNELS 3 Zrotation Xrotation Yrotation
					End Site
					{
						OFFSET -0.000000 -0.001594 0.127952
					}
				}
			}
		}
	}
	JOINT RightUpperLeg
	{
		OFFSET -0.077122 -0.039594 -0.005714
		CHANNELS 3 Zrotation Xrotation Yrotation
		JOINT RightLowerLeg
		{
			OFFSET -0.000000 -0.343087 0.003695
			CHANNELS 3 Zrotation Xrotation Yrotation
			JOINT RightFoot
			{
				OFFSET 0.000000 -0.401029 -0.031326
				CHANNELS 3 Zrotation Xrotation Yrotation
				JOINT RightToes
				{
					OFFSET 0.000000 -0.001593 0.127952
					CHANNELS 3 Zrotation Xrotation Yrotation
					End Site
					{
						OFFSET -0.000000 -0.001593 0.127952
					}
				}
			}
		}
	}
}
MOTION
Frames: 4
Frame Time: 0.016667
0.000000 0.794594 0.001814 -0.000000 0.000000 -0.000000 0.000000 -0.000000 0.000000 0.000000 0.000000 0.000000 -0.000000 -0.000000 -0.000000 -0.000000 -0.000000 -0.000000 -0.000000 0.000001 -0.000000 0.000000 -0.000001 -0.000000 -0.000000 -0.000003 -0.000000 -0.000000 -0.000000 -0.000000 -0.000000 0.000003 0.000000 0.000000 -0.000001 -0.000000 0.000000 0.000002 -0.000000 0.000000 0.000000 -0.000000 0.000000 0.000000 -0.000000 0.000000 0.000000 -0.000000 0.000000 0.000000 -0.000000 0.000000 -0.000000 -0.000000 0.000000 0.000000 -0.000000 0.000000 0.000000 -0.000000 0.000000 0.000000 -0.000000 0.000000 0.000000 -0.000000 0.000000 0.000000 -0.000000 0.000000 -0.000000 -0.000000 0.000000 0.000000 -0.000000 -0.000001 0.000001 0.000000 -0.000004 -0.000003 0.000000 -0.000002 -0.000002 -0.000001 -0.000000 -0.000001 -0.000000 -0.000000 -0.000000 0.000000 0.000000 0.000000 0.000000 -0.000000 0.000000 0.000000 0.000000 0.000000 -0.000000 0.000000 0.000000 0.000000 0.000000 0.000000 0.000000 0.000000 0.000000 -0.000000 0.000000 -0.000000 0.000000 0.000000 -0.000000 0.000000 0.000000 0.000000 -0.000000 0.000000 -0.000000 0.000000 -0.000000 -0.000000 0.000000 0.000000 -0.000000 0.000000 0.000000 0.000000 -0.000000 0.000000 0.000000 0.000000 -0.000000 -0.000001 0.000005 -0.000000 0.000000 -0.000000 0.000001 -0.000001 0.000004 0.000000 -0.000000 0.000000 -0.000000 -0.000000 0.000000 0.000000 -0.000000 -0.000000 -0.000000 -0.000000 0.000000 -0.000000 0.000000 0.000000 -0.000000 -0.000000 0.000000 -0.000000 -0.000000 -0.000000 -0.000000 -0.000000 -0.000000 
-0.002301 0.791763 0.015186 -1.414388 -0.044969 -7.709754 -1.599501 0.878731 -0.284296 3.590966 -3.844948 -0.042297 -0.103852 -3.584396 0.067445 -4.959667 -2.622592 -1.608984 -10.284591 8.906869 5.498216 0.000066 0.000014 0.000017 0.000066 0.000013 0.000017 -4.923508 -0.059647 -0.687546 -24.003853 57.180551 -49.866409 5.586151 1.668804 -71.252062 -13.078028 -4.927980 -8.623683 -14.449354 -2.316586 4.063881 -26.368333 -0.480762 -4.658177 -26.368719 -0.480759 -4.658110 -16.783069 4.100124 -12.826018 -26.484557 0.375489 -3.716013 -26.485489 0.375524 -3.715974 -17.976093 -0.600445 -0.881727 -26.484999 0.375570 -3.716195 -26.485378 0.375587 -3.716167 -17.665378 1.095763 -5.108576 -26.485109 0.375618 -3.716221 -26.485425 0.375577 -3.716152 10.247493 -6.352291 19.141521 -9.602618 4.581040 19.616030 -7.502195 3.546073 16.061675 3.472170 -0.061161 0.504262 36.718110 61.156947 44.955581 -1.095515 -0.352794 30.502942 4.537314 30.182910 10.259048 31.942343 -2.884159 0.497895 31.579042 -0.318597 5.576487 31.579766 -0.318586 5.576499 31.118373 4.156784 9.335074 31.713364 0.652159 4.407463 31.713989 0.652159 4.407439 31.915179 -1.334973 1.655291 31.713593 0.652211 4.407663 31.713941 0.652209 4.407650 31.713630 0.651963 4.407367 31.713661 0.652222 4.407655 31.713945 0.652172 4.407673 -6.913650 -4.802220 -13.871377 4.856159 1.366875 -23.927831 3.634762 0.788377 -19.580686 0.519857 -6.760926 -6.647634 0.008624 17.447553 0.025585 -4.571156 -7.981237 2.023511 -0.000000 -0.000000 0.000000 1.988835 -0.383366 26.147346 -0.002438 12.817256 -0.018062 6.130604 -5.006997 -2.380219 -0.000000 -0.000000 -0.000001 
-0.002273 0.791768 0.015217 -1.425385 -0.040219 -7.705237 -1.605441 0.876936 -0.273466 3.592565 -3.842780 -0.038127 -0.092905 -3.584512 0.071113 -4.960431 -2.622785 -1.606211 -10.260530 8.893585 5.527452 0.000180 -0.002430 0.004500 -0.000430 -0.002432 0.002704 -4.923528 -0.059651 -0.687553 -25.314481 56.497484 -48.467661 5.245875 1.561204 -69.679240 -13.165669 -5.685994 -8.699977 -14.430217 -2.303740 4.059682 -26.331009 -0.479372 -4.650541 -26.334539 -0.482834 -4.650027 -17.413147 4.242918 -12.751815 -27.178672 0.420915 -3.704327 -27.004078 0.409322 -3.705560 -17.957387 -0.593104 -0.875020 -26.473313 0.374197 -3.709391 -26.466980 0.373750 -3.709411 -17.655974 1.099572 -5.094532 -26.721612 0.390684 -3.707753 -26.477471 0.374437 -3.709354 10.331757 -6.293830 19.647731 -9.602596 4.581033 19.616023 -7.502187 3.546080 16.061665 3.617531 -0.062773 0.524915 36.730029 61.083413 44.475453 -1.116773 -0.372121 31.236880 4.568826 28.925858 10.838451 31.984454 -2.856037 0.481562 33.002224 -0.230743 5.615055 33.044438 -0.231860 5.616210 33.021000 4.438715 9.189078 33.717055 0.808126 4.373767 33.723970 0.808598 4.373686 33.382321 -1.274764 1.673639 33.446603 0.787032 4.377754 33.440937 0.786547 4.377807 33.403156 0.788440 4.371694 33.473186 0.789078 4.377386 33.484955 0.789961 4.377244 -7.011447 -4.752285 -14.604133 4.845084 1.369352 -23.887595 3.701901 0.797700 -21.096631 0.527575 -6.877327 -6.654461 -0.003668 17.564730 0.025444 -4.569090 -7.985869 2.025832 0.000000 -0.000000 0.000001 1.991844 -0.371615 26.142038 -0.002302 12.789936 -0.017993 6.131206 -4.996972 -2.380355 -0.000000 -0.000001 0.000001 
-0.002236 0.791769 0.015198 -1.442243 -0.025274 -7.689919 -1.609607 0.885348 -0.251620 3.595762 -3.834942 -0.026859 -0.062521 -3.583265 0.081155 -4.961242 -2.623238 -1.603461 -10.159230 8.847232 5.525727 0.000569 -0.009206 0.017892 -0.001733 -0.009200 0.010830 -4.923508 -0.059651 -0.687551 -25.743121 56.429384 -47.263833 5.198833 1.545708 -69.457696 -13.210840 -6.423756 -8.766725 -14.374135 -2.266095 4.047223 -26.221663 -0.475294 -4.628201 -26.234311 -0.488843 -4.626249 -18.015568 4.375637 -12.623545 -27.837961 0.462290 -3.679118 -27.496598 0.439767 -3.681793 -17.902602 -0.571504 -0.855457 -26.439017 0.370116 -3.689486 -26.413045 0.368377 -3.689613 -17.628418 1.110719 -5.053401 -26.946177 0.403594 -3.686067 -26.454275 0.371098 -3.689358 10.391226 -6.229322 20.118647 -9.602600 4.581022 19.616015 -7.502199 3.546069 16.061666 3.758126 -0.064283 0.544903 36.944848 60.872108 43.384952 -1.164257 -0.418657 32.937706 4.608955 27.692811 11.430565 32.025487 -2.772910 0.429430 34.384617 -0.140473 5.634659 34.470568 -0.149569 5.636916 34.911815 4.689400 9.004208 35.708321 0.958321 4.319355 35.721828 0.959302 4.319144 34.808628 -1.187674 1.658990 35.154031 0.915525 4.328636 35.142003 0.914544 4.328829 35.063869 0.927470 4.304187 35.208392 0.919708 4.327788 35.232192 0.921485 4.327429 -7.067603 -4.674608 -15.303411 4.812350 1.376796 -23.770115 3.759127 0.807428 -22.603213 0.541839 -6.801243 -6.671302 0.007883 17.482479 0.025611 -4.568077 -7.991569 2.026779 0.000000 0.000000 -0.000001 2.001993 -0.370305 26.124811 -0.003254 12.759989 -0.017918 6.132956 -4.983470 -2.379141 -0.000001 -0.000000 -0.000000 
